<svg height="512" viewBox="0 0 58 58" width="512" xmlns="http://www.w3.org/2000/svg"><g id="Page-1" fill="none" fill-rule="evenodd"><g id="017---Customer-Support" fill-rule="nonzero"><path id="Shape" d="m.01098834 28c-.00777799-6.4719289 3.88791276-12.3098386 9.86720207-14.7865347 5.97928929-2.4766961 12.86198159-1.1033269 17.43280959 3.4785347 3.008343 2.9923835 4.6930823 7.0648574 4.6781004 11.308h-2.0001004c.007971-5.6639135-3.4013558-10.7732921-8.6344559-12.9400045s-11.2563778-.9628088-15.2545441 3.0490045c-2.63056241 2.6177238-4.10319499 6.1799173-4.089 9.891z" fill="#bdc3c7"/><path id="Shape" d="m6.2 23h-3.2c-1.65685425 0-3 1.3431458-3 3v4c0 1.6568542 1.34314575 3 3 3h26c1.6568542 0 3-1.3431458 3-3v-4c0-1.6568542-1.3431458-3-3-3z" fill="#285680"/><path id="Shape" d="m21.97 37.24c1.730947.7480377 3.3025953 1.8206962 4.63 3.16 2.8217111 2.8050799 4.4057795 6.6212447 4.4 10.6v5c-.0032948 1.1032019-.8967981 1.9967052-2 2h-26c-1.10320187-.0032948-1.9967052-.8967981-2-2v-5c.00240097-5.9753017 3.54917701-11.3799128 9.03-13.76z" fill="#3b97d3"/><path id="Shape" d="m32 3v12c0 1.6568542 1.3431458 3 3 3h1.75l-.424 3.4c-.0508103.4113755.1574336.811454.523538 1.0058222.3661045.1943682.814169.1427298 1.126462-.1298222l4.884-4.276h12.14c1.6568542 0 3-1.3431458 3-3v-12c0-1.65685425-1.3431458-3-3-3h-20c-1.6568542 0-3 1.34314575-3 3z" fill="#f29c1f"/><circle id="Oval" cx="38" cy="9" fill="#fff" r="2"/><circle id="Oval" cx="45" cy="9" fill="#fff" r="2"/><circle id="Oval" cx="52" cy="9" fill="#fff" r="2"/><path id="Shape" d="m35 47v-9c0-1.6568542 1.3431458-3 3-3h1.75l-.424-3.4c-.0508103-.4113755.1574336-.811454.523538-1.0058222.3661045-.1943682.814169-.1427298 1.126462.1298222l4.884 4.276h9.14c1.6568542 0 3 1.3431458 3 3v9c0 1.6568542-1.3431458 3-3 3h-17c-1.6568542 0-3-1.3431458-3-3z" fill="#4fba6f"/><path id="Shape" d="m27 28c-.0008071.8279044-.0947308 1.6530913-.28 2.46-.1977191.8744687-.5033971 1.7209616-.91 2.52 0 .01-.01.01-.01.02-2.534212 4.9755923-8.39009 7.2684556-13.6289795 5.3364137-5.23888954-1.932042-8.20391778-7.4779536-6.90081141-12.9075635 1.30310638-5.4296099 6.46222151-9.0257271 12.00733281-8.3696089 5.5451112.6561182 9.7224986 5.3569652 9.7224581 10.9407587z" fill="#fdd7ad"/><path id="Shape" d="m10 51v7h-2v-7c0-.5522847.44771525-1 1-1s1 .4477153 1 1z" fill="#2980ba"/><path id="Shape" d="m24 51v7h-2v-7c0-.5522847.4477153-1 1-1s1 .4477153 1 1z" fill="#2980ba"/><path id="Shape" d="m26.72 30.46c-.1977191.8744687-.5033971 1.7209616-.91 2.52-2.5314268.7421782-5.1628507 1.0862875-7.8 1.02-.63 0-1.3-.01-2.01-.04l.09-2c5.74.25 8.92-.62 10.63-1.5z" fill="#95a5a5"/><rect id="Rectangle-path" fill="#f29c1f" height="4" rx="2" width="6" x="13" y="31"/><g fill="#fff"><path id="Shape" d="m42 41h-3c-.5522847 0-1-.4477153-1-1s.4477153-1 1-1h3c.5522847 0 1 .4477153 1 1s-.4477153 1-1 1z"/><path id="Shape" d="m54 41h-8c-.5522847 0-1-.4477153-1-1s.4477153-1 1-1h8c.5522847 0 1 .4477153 1 1s-.4477153 1-1 1z"/><path id="Shape" d="m54 46h-3c-.5522847 0-1-.4477153-1-1s.4477153-1 1-1h3c.5522847 0 1 .4477153 1 1s-.4477153 1-1 1z"/><path id="Shape" d="m47 46h-8c-.5522847 0-1-.4477153-1-1s.4477153-1 1-1h8c.5522847 0 1 .4477153 1 1s-.4477153 1-1 1z"/></g></g></g></svg>